<?xml version="1.0" standalone="no"?>
<!DOCTYPE svg PUBLIC "-//W3C//DTD SVG 20010904//EN"
 "http://www.w3.org/TR/2001/REC-SVG-20010904/DTD/svg10.dtd">
<svg version="1.0" xmlns="http://www.w3.org/2000/svg"
 width="421.000000pt" height="421.000000pt" viewBox="0 0 421.000000 421.000000"
 preserveAspectRatio="xMidYMid meet">
<metadata>
Created by potrace 1.11, written by Peter Selinger 2001-2013
</metadata>
<g transform="translate(0.000000,421.000000) scale(0.100000,-0.100000)"
fill="#000000" stroke="none">
<path d="M3102 4135 c-85 -41 -155 -75 -157 -75 -2 0 -84 -39 -182 -86 -246
-119 -321 -154 -328 -154 -4 0 -26 -14 -50 -31 -44 -32 -61 -65 -116 -229 -37
-112 -49 -131 -73 -124 -96 31 -229 12 -242 -36 -4 -14 -7 -28 -6 -32 1 -5 -1
-8 -6 -8 -4 0 -6 -20 -4 -45 4 -41 7 -47 41 -62 20 -9 40 -15 44 -14 4 1 18
-4 30 -11 22 -12 42 -18 65 -20 6 -1 12 -7 12 -14 0 -18 -48 -153 -86 -241 -8
-17 -14 -35 -14 -40 0 -6 -47 -9 -110 -9 -60 0 -110 4 -110 9 0 4 16 56 36
114 27 83 35 123 36 182 1 149 -21 259 -75 366 -48 98 -94 131 -196 141 -82 9
-156 -28 -208 -103 -20 -29 -41 -53 -47 -54 -22 -2 -61 -8 -81 -12 -29 -6 -45
11 -45 49 0 38 -6 41 -39 18 l-23 -17 6 54 c3 30 8 64 12 77 4 13 2 22 -4 22
-14 0 -29 -55 -36 -130 -4 -39 -5 -40 -26 -40 -11 0 -23 7 -26 15 -4 8 -12 15
-19 15 -19 0 -84 60 -101 93 -8 15 -19 27 -23 27 -13 0 -2 -62 15 -81 22 -24
17 -29 -17 -17 -17 6 -34 20 -39 32 -7 16 -9 17 -9 4 -1 -9 10 -28 23 -41 l24
-24 -42 -18 c-101 -43 -162 -201 -126 -325 8 -25 14 -47 15 -50 1 -3 9 -22 18
-44 9 -21 17 -47 17 -57 0 -10 5 -30 10 -45 6 -15 11 -43 12 -63 2 -91 76
-130 140 -73 14 12 21 12 32 3 8 -7 13 -18 11 -24 -9 -26 -17 -82 -30 -212
-26 -264 -24 -641 4 -880 6 -44 13 -102 16 -130 3 -27 13 -78 21 -113 20 -91
20 -92 -26 -92 -25 0 -43 -5 -46 -13 -3 -9 -18 -13 -42 -11 -46 2 -94 -17
-139 -57 -20 -17 -47 -36 -61 -42 -28 -13 -107 -93 -132 -135 -10 -15 -31 -42
-47 -61 -56 -61 -59 -72 -30 -135 27 -58 25 -68 -8 -56 -13 5 -24 1 -35 -12
-8 -10 -24 -19 -35 -21 -11 -1 -27 -7 -36 -12 -24 -14 -59 -89 -59 -126 0 -28
-15 -72 -41 -121 -23 -45 11 -109 76 -144 19 -10 35 -21 35 -24 0 -6 -97 -50
-111 -50 -16 0 -10 -39 16 -100 14 -33 25 -68 25 -79 0 -11 7 -26 15 -35 8 -8
15 -24 15 -36 0 -38 28 -77 67 -93 21 -8 40 -15 43 -15 3 0 18 -6 34 -12 16
-6 45 -13 65 -16 20 -2 47 -7 61 -11 14 -3 28 -6 32 -5 4 1 20 -3 35 -9 15 -5
49 -12 75 -14 27 -3 58 -10 70 -16 30 -16 227 -21 302 -8 33 6 72 12 86 14 54
8 93 17 109 24 9 5 41 17 71 26 30 10 66 26 80 35 14 10 51 31 82 48 52 28 86
53 124 90 8 7 14 11 14 9 0 -10 119 110 129 129 8 16 20 21 57 22 95 4 266 53
321 91 12 9 23 27 23 40 0 14 5 21 13 18 8 -3 12 7 13 32 0 36 5 62 17 91 19
48 67 203 77 250 7 30 19 75 26 100 7 25 16 60 19 79 3 19 8 37 10 40 2 4 6
25 9 47 4 22 8 49 10 59 18 95 36 196 40 225 8 60 18 115 21 119 2 2 7 -10 10
-25 41 -198 161 -450 322 -679 35 -50 198 -216 256 -263 41 -31 217 -141 261
-161 37 -17 46 -25 35 -32 -8 -5 -22 -9 -31 -9 -10 0 -18 -6 -18 -14 0 -57
205 -81 343 -41 52 15 97 46 97 67 0 4 6 8 14 8 26 0 107 91 140 158 49 99 59
164 53 349 -3 87 -8 172 -11 188 -3 17 -8 52 -11 79 -14 122 -166 479 -253
595 -103 137 -351 361 -400 361 -7 0 -12 4 -12 8 0 19 -62 41 -135 47 -92 8
-111 11 -125 20 -6 3 -46 6 -91 6 -71 0 -88 -4 -154 -36 -105 -50 -255 -203
-255 -260 0 -8 -4 -15 -9 -15 -5 0 -9 46 -10 103 -1 135 -12 300 -25 397 -3
19 -10 76 -16 125 -6 50 -12 99 -14 110 -11 76 -20 131 -22 138 -1 4 -2 14 -3
22 -1 17 -40 35 -86 40 -16 2 -57 7 -90 11 -33 4 -79 8 -102 8 -52 -1 -54 9
-20 94 13 31 29 76 37 100 7 23 16 42 20 42 4 0 21 20 39 45 30 41 36 45 68
41 29 -3 36 1 45 20 8 18 8 27 -2 39 -10 12 -10 19 -2 27 9 9 19 5 43 -18 30
-29 31 -29 149 -28 67 0 129 5 142 11 13 7 52 21 88 33 92 30 110 44 110 84 0
25 -6 35 -25 44 -14 6 -25 16 -25 22 0 5 -7 10 -15 10 -9 0 -18 7 -21 15 -4 8
-14 15 -24 15 -10 0 -21 7 -24 16 -4 10 -14 14 -26 11 -11 -3 -22 -2 -25 3 -6
9 -57 21 -109 25 -26 2 -58 -6 -99 -26 -33 -15 -64 -26 -68 -23 -5 3 -20 -13
-33 -35 -14 -22 -30 -42 -36 -46 -5 -3 -10 -17 -10 -30 0 -14 -8 -34 -17 -44
-16 -19 -17 -19 -29 -2 -14 20 -9 38 76 254 l42 108 261 128 c144 71 291 142
327 159 130 60 265 125 276 134 8 6 7 18 -4 43 -9 19 -19 35 -22 35 -3 0 -74
-34 -158 -75z"/>
</g>
</svg>
